<svg xmlns="http://www.w3.org/2000/svg" width="850" height="520" viewBox="0 0 850 520">
<style>text{font-family:Arial,Helvetica,sans-serif;font-size:12px;} .title{font-size:16px;font-weight:bold;} .axis{stroke:#333;stroke-width:1.2;} .grid{stroke:#ddd;stroke-width:0.8;} .small{font-size:10px;} .label{font-size:13px;}</style>
<rect width="100%" height="100%" fill="white"/>
<text class="title" x="85" y="30">Within-dataset bins of Qwen expectedness for stronger alternatives</text>
<line class="grid" x1="85" y1="395.0" x2="775" y2="395.0"/>
<text class="small" x="77" y="399.0" text-anchor="end">0.0</text>
<line class="grid" x1="85" y1="328.0" x2="775" y2="328.0"/>
<text class="small" x="77" y="332.0" text-anchor="end">0.2</text>
<line class="grid" x1="85" y1="261.0" x2="775" y2="261.0"/>
<text class="small" x="77" y="265.0" text-anchor="end">0.4</text>
<line class="grid" x1="85" y1="194.0" x2="775" y2="194.0"/>
<text class="small" x="77" y="198.0" text-anchor="end">0.6</text>
<line class="grid" x1="85" y1="127.0" x2="775" y2="127.0"/>
<text class="small" x="77" y="131.0" text-anchor="end">0.8</text>
<line class="grid" x1="85" y1="60.0" x2="775" y2="60.0"/>
<text class="small" x="77" y="64.0" text-anchor="end">1.0</text>
<line class="axis" x1="85" y1="60" x2="85" y2="395"/>
<line class="axis" x1="85" y1="395" x2="775" y2="395"/>
<rect x="108.6" y="257.9" width="38.0" height="137.1" fill="#9ecae1" opacity="0.9"/>
<line x1="127.6" y1="242.0" x2="127.6" y2="273.9" stroke="#111"/>
<line x1="123.6" y1="242.0" x2="131.6" y2="242.0" stroke="#111"/>
<line x1="123.6" y1="273.9" x2="131.6" y2="273.9" stroke="#111"/>
<rect x="152.3" y="279.1" width="38.0" height="115.9" fill="#fdae6b" opacity="0.9"/>
<line x1="171.2" y1="264.9" x2="171.2" y2="293.2" stroke="#111"/>
<line x1="167.2" y1="264.9" x2="175.2" y2="264.9" stroke="#111"/>
<line x1="167.2" y1="293.2" x2="175.2" y2="293.2" stroke="#111"/>
<rect x="195.9" y="260.9" width="38.0" height="134.1" fill="#74c476" opacity="0.9"/>
<line x1="214.9" y1="246.8" x2="214.9" y2="274.9" stroke="#111"/>
<line x1="210.9" y1="246.8" x2="218.9" y2="246.8" stroke="#111"/>
<line x1="210.9" y1="274.9" x2="218.9" y2="274.9" stroke="#111"/>
<text class="small" x="171.2" y="417" text-anchor="middle">Gotzner et al. (2018)</text>
<rect x="281.1" y="296.4" width="38.0" height="98.6" fill="#9ecae1" opacity="0.9"/>
<line x1="300.1" y1="280.4" x2="300.1" y2="312.5" stroke="#111"/>
<line x1="296.1" y1="280.4" x2="304.1" y2="280.4" stroke="#111"/>
<line x1="296.1" y1="312.5" x2="304.1" y2="312.5" stroke="#111"/>
<rect x="324.8" y="289.3" width="38.0" height="105.7" fill="#fdae6b" opacity="0.9"/>
<line x1="343.8" y1="267.9" x2="343.8" y2="310.6" stroke="#111"/>
<line x1="339.8" y1="267.9" x2="347.8" y2="267.9" stroke="#111"/>
<line x1="339.8" y1="310.6" x2="347.8" y2="310.6" stroke="#111"/>
<rect x="368.4" y="266.2" width="38.0" height="128.8" fill="#74c476" opacity="0.9"/>
<line x1="387.4" y1="248.0" x2="387.4" y2="284.4" stroke="#111"/>
<line x1="383.4" y1="248.0" x2="391.4" y2="248.0" stroke="#111"/>
<line x1="383.4" y1="284.4" x2="391.4" y2="284.4" stroke="#111"/>
<text class="small" x="343.8" y="417" text-anchor="middle">Pankratz &amp;</text>
<text class="small" x="343.8" y="430" text-anchor="middle">van Tiel (2021)</text>
<rect x="453.6" y="311.7" width="38.0" height="83.3" fill="#9ecae1" opacity="0.9"/>
<line x1="472.6" y1="292.0" x2="472.6" y2="331.4" stroke="#111"/>
<line x1="468.6" y1="292.0" x2="476.6" y2="292.0" stroke="#111"/>
<line x1="468.6" y1="331.4" x2="476.6" y2="331.4" stroke="#111"/>
<rect x="497.3" y="250.9" width="38.0" height="144.1" fill="#fdae6b" opacity="0.9"/>
<line x1="516.2" y1="225.6" x2="516.2" y2="276.3" stroke="#111"/>
<line x1="512.2" y1="225.6" x2="520.2" y2="225.6" stroke="#111"/>
<line x1="512.2" y1="276.3" x2="520.2" y2="276.3" stroke="#111"/>
<rect x="540.9" y="233.4" width="38.0" height="161.6" fill="#74c476" opacity="0.9"/>
<line x1="559.9" y1="214.2" x2="559.9" y2="252.5" stroke="#111"/>
<line x1="555.9" y1="214.2" x2="563.9" y2="214.2" stroke="#111"/>
<line x1="555.9" y1="252.5" x2="563.9" y2="252.5" stroke="#111"/>
<text class="small" x="516.2" y="417" text-anchor="middle">Ronai &amp; Xiang (2022)</text>
<rect x="626.1" y="269.6" width="38.0" height="125.4" fill="#9ecae1" opacity="0.9"/>
<line x1="645.1" y1="255.6" x2="645.1" y2="283.7" stroke="#111"/>
<line x1="641.1" y1="255.6" x2="649.1" y2="255.6" stroke="#111"/>
<line x1="641.1" y1="283.7" x2="649.1" y2="283.7" stroke="#111"/>
<rect x="669.8" y="247.8" width="38.0" height="147.2" fill="#fdae6b" opacity="0.9"/>
<line x1="688.8" y1="234.0" x2="688.8" y2="261.5" stroke="#111"/>
<line x1="684.8" y1="234.0" x2="692.8" y2="234.0" stroke="#111"/>
<line x1="684.8" y1="261.5" x2="692.8" y2="261.5" stroke="#111"/>
<rect x="713.4" y="228.9" width="38.0" height="166.1" fill="#74c476" opacity="0.9"/>
<line x1="732.4" y1="213.7" x2="732.4" y2="244.1" stroke="#111"/>
<line x1="728.4" y1="213.7" x2="736.4" y2="213.7" stroke="#111"/>
<line x1="728.4" y1="244.1" x2="736.4" y2="244.1" stroke="#111"/>
<text class="small" x="688.8" y="417" text-anchor="middle">van Tiel</text>
<text class="small" x="688.8" y="430" text-anchor="middle">et al. (2016)</text>
<text class="label" x="635" y="68">Qwen expectedness</text>
<rect x="635" y="82" width="12" height="12" fill="#9ecae1"/>
<text x="653" y="92">low</text>
<rect x="635" y="104" width="12" height="12" fill="#fdae6b"/>
<text x="653" y="114">mid</text>
<rect x="635" y="126" width="12" height="12" fill="#74c476"/>
<text x="653" y="136">high</text>
<text class="label" transform="translate(18 227.5) rotate(-90)" text-anchor="middle">Mean human scalar inference rate</text>
</svg>