<svg xmlns="http://www.w3.org/2000/svg" width="700" height="500" viewBox="0 0 700 500">
<style>text{font-family:Arial,Helvetica,sans-serif;font-size:12px;} .title{font-size:16px;font-weight:bold;} .axis{stroke:#333;stroke-width:1.2;} .grid{stroke:#ddd;stroke-width:0.8;} .small{font-size:10px;} .label{font-size:13px;}</style>
<rect width="100%" height="100%" fill="white"/>
<text class="title" x="80" y="28">Binned summary of Hu-style scalar items</text>
<line class="grid" x1="80" y1="400.0" x2="620" y2="400.0"/>
<text class="small" x="72" y="404.0" text-anchor="end">0.0</text>
<line class="grid" x1="80" y1="331.0" x2="620" y2="331.0"/>
<text class="small" x="72" y="335.0" text-anchor="end">0.2</text>
<line class="grid" x1="80" y1="262.0" x2="620" y2="262.0"/>
<text class="small" x="72" y="266.0" text-anchor="end">0.4</text>
<line class="grid" x1="80" y1="193.0" x2="620" y2="193.0"/>
<text class="small" x="72" y="197.0" text-anchor="end">0.6</text>
<line class="grid" x1="80" y1="124.0" x2="620" y2="124.0"/>
<text class="small" x="72" y="128.0" text-anchor="end">0.8</text>
<line class="grid" x1="80" y1="55.0" x2="620" y2="55.0"/>
<text class="small" x="72" y="59.0" text-anchor="end">1.0</text>
<line class="axis" x1="80" y1="55" x2="80" y2="400"/>
<line class="axis" x1="80" y1="400" x2="620" y2="400"/>
<line x1="113.9" y1="259.9" x2="113.9" y2="283.4" stroke="#111"/>
<line x1="108.9" y1="259.9" x2="118.9" y2="259.9" stroke="#111"/>
<line x1="108.9" y1="283.4" x2="118.9" y2="283.4" stroke="#111"/>
<circle cx="113.9" cy="271.7" r="6" fill="#111"/>
<text class="small" x="113.9" y="257.7" text-anchor="middle">n=62</text>
<line x1="298.2" y1="282.8" x2="298.2" y2="301.9" stroke="#111"/>
<line x1="293.2" y1="282.8" x2="303.2" y2="282.8" stroke="#111"/>
<line x1="293.2" y1="301.9" x2="303.2" y2="301.9" stroke="#111"/>
<circle cx="298.2" cy="292.3" r="6" fill="#111"/>
<text class="small" x="298.2" y="278.3" text-anchor="middle">n=62</text>
<line x1="392.0" y1="240.5" x2="392.0" y2="264.3" stroke="#111"/>
<line x1="387.0" y1="240.5" x2="397.0" y2="240.5" stroke="#111"/>
<line x1="387.0" y1="264.3" x2="397.0" y2="264.3" stroke="#111"/>
<circle cx="392.0" cy="252.4" r="6" fill="#111"/>
<text class="small" x="392.0" y="238.4" text-anchor="middle">n=61</text>
<line x1="475.9" y1="254.2" x2="475.9" y2="278.6" stroke="#111"/>
<line x1="470.9" y1="254.2" x2="480.9" y2="254.2" stroke="#111"/>
<line x1="470.9" y1="278.6" x2="480.9" y2="278.6" stroke="#111"/>
<circle cx="475.9" cy="266.4" r="6" fill="#111"/>
<text class="small" x="475.9" y="252.4" text-anchor="middle">n=62</text>
<line x1="586.1" y1="218.5" x2="586.1" y2="241.1" stroke="#111"/>
<line x1="581.1" y1="218.5" x2="591.1" y2="218.5" stroke="#111"/>
<line x1="581.1" y1="241.1" x2="591.1" y2="241.1" stroke="#111"/>
<circle cx="586.1" cy="229.8" r="6" fill="#111"/>
<text class="small" x="586.1" y="215.8" text-anchor="middle">n=62</text>
<line x1="113.9" y1="271.7" x2="298.2" y2="292.3" stroke="#111" stroke-width="1.5"/>
<line x1="298.2" y1="292.3" x2="392.0" y2="252.4" stroke="#111" stroke-width="1.5"/>
<line x1="392.0" y1="252.4" x2="475.9" y2="266.4" stroke="#111" stroke-width="1.5"/>
<line x1="475.9" y1="266.4" x2="586.1" y2="229.8" stroke="#111" stroke-width="1.5"/>
<text class="small" x="57.3" y="418" text-anchor="middle">-9.0</text>
<text class="small" x="179.1" y="418" text-anchor="middle">-7.2</text>
<text class="small" x="301.0" y="418" text-anchor="middle">-5.4</text>
<text class="small" x="422.9" y="418" text-anchor="middle">-3.6</text>
<text class="small" x="544.8" y="418" text-anchor="middle">-1.8</text>
<text class="small" x="666.6" y="418" text-anchor="middle">0.0</text>
<text class="label" x="350.0" y="455" text-anchor="middle">Mean Qwen log P(stronger alternative | context) in bin</text>
<text class="label" transform="translate(18 227.5) rotate(-90)" text-anchor="middle">Mean human scalar inference rate</text>
</svg>